<svg width="178" height="178" viewBox="0 0 178 178" fill="none" xmlns="http://www.w3.org/2000/svg">
<rect width="178" height="178" fill="#00AB37"/>
<path d="M48.9773 158.273V167H47.9545L43.1989 160.148H43.1136V167H42.0568V158.273H43.0795L47.8523 165.142H47.9375V158.273H48.9773ZM55.0806 164.324V160.455H56.0863V167H55.0806V165.892H55.0124C54.859 166.224 54.6204 166.507 54.2965 166.74C53.9727 166.97 53.5636 167.085 53.0692 167.085C52.6602 167.085 52.2965 166.996 51.9783 166.817C51.6602 166.635 51.4102 166.362 51.2283 165.999C51.0465 165.632 50.9556 165.17 50.9556 164.614V160.455H51.9613V164.545C51.9613 165.023 52.0948 165.403 52.3619 165.688C52.6317 165.972 52.9755 166.114 53.3931 166.114C53.6431 166.114 53.8974 166.05 54.1559 165.922C54.4173 165.794 54.636 165.598 54.8121 165.334C54.9911 165.07 55.0806 164.733 55.0806 164.324ZM53.0692 159.568L54.109 157.591H55.2852L53.9556 159.568H53.0692ZM57.9283 167V160.455H58.8999V161.477H58.9851C59.1214 161.128 59.3416 160.857 59.6456 160.663C59.9496 160.467 60.3146 160.369 60.7408 160.369C61.1726 160.369 61.532 160.467 61.8189 160.663C62.1087 160.857 62.3345 161.128 62.4964 161.477H62.5646C62.7322 161.139 62.9837 160.871 63.3189 160.672C63.6541 160.47 64.0561 160.369 64.5249 160.369C65.1101 160.369 65.5888 160.553 65.9609 160.919C66.3331 161.283 66.5192 161.849 66.5192 162.619V167H65.5135V162.619C65.5135 162.136 65.3814 161.791 65.1172 161.584C64.853 161.376 64.5419 161.273 64.1839 161.273C63.7237 161.273 63.3672 161.412 63.1143 161.69C62.8615 161.966 62.7351 162.315 62.7351 162.739V167H61.7124V162.517C61.7124 162.145 61.5916 161.845 61.3501 161.618C61.1087 161.388 60.7976 161.273 60.4169 161.273C60.1555 161.273 59.9112 161.342 59.6839 161.482C59.4595 161.621 59.2777 161.814 59.1385 162.061C59.0021 162.305 58.9339 162.588 58.9339 162.909V167H57.9283ZM71.1023 167.136C70.4716 167.136 69.9276 166.997 69.4702 166.719C69.0156 166.438 68.6648 166.045 68.4176 165.543C68.1733 165.037 68.0511 164.449 68.0511 163.778C68.0511 163.108 68.1733 162.517 68.4176 162.006C68.6648 161.491 69.0085 161.091 69.4489 160.804C69.892 160.514 70.4091 160.369 71 160.369C71.3409 160.369 71.6776 160.426 72.0099 160.54C72.3423 160.653 72.6449 160.838 72.9176 161.094C73.1903 161.347 73.4077 161.682 73.5696 162.099C73.7315 162.517 73.8125 163.031 73.8125 163.642V164.068H68.767V163.199H72.7898C72.7898 162.83 72.7159 162.5 72.5682 162.21C72.4233 161.92 72.2159 161.692 71.946 161.524C71.679 161.357 71.3636 161.273 71 161.273C70.5994 161.273 70.2528 161.372 69.9602 161.571C69.6705 161.767 69.4474 162.023 69.2912 162.338C69.1349 162.653 69.0568 162.991 69.0568 163.352V163.932C69.0568 164.426 69.142 164.845 69.3125 165.189C69.4858 165.53 69.7259 165.79 70.0327 165.969C70.3395 166.145 70.696 166.233 71.1023 166.233C71.3665 166.233 71.6051 166.196 71.8182 166.122C72.0341 166.045 72.2202 165.932 72.3764 165.781C72.5327 165.628 72.6534 165.437 72.7386 165.21L73.7102 165.483C73.608 165.812 73.4361 166.102 73.1946 166.352C72.9531 166.599 72.6548 166.793 72.2997 166.932C71.9446 167.068 71.5455 167.136 71.1023 167.136ZM75.3423 167V160.455H76.3139V161.443H76.3821C76.5014 161.119 76.7173 160.857 77.0298 160.655C77.3423 160.453 77.6946 160.352 78.0866 160.352C78.1605 160.352 78.2528 160.354 78.3636 160.357C78.4744 160.359 78.5582 160.364 78.6151 160.369V161.392C78.581 161.384 78.5028 161.371 78.3807 161.354C78.2614 161.334 78.1349 161.324 78.0014 161.324C77.6832 161.324 77.3991 161.391 77.1491 161.524C76.902 161.655 76.706 161.837 76.5611 162.07C76.419 162.3 76.348 162.562 76.348 162.858V167H75.3423ZM82.267 167.136C81.6761 167.136 81.1577 166.996 80.7116 166.714C80.2685 166.433 79.9219 166.04 79.6719 165.534C79.4247 165.028 79.3011 164.437 79.3011 163.761C79.3011 163.08 79.4247 162.484 79.6719 161.976C79.9219 161.467 80.2685 161.072 80.7116 160.791C81.1577 160.51 81.6761 160.369 82.267 160.369C82.858 160.369 83.375 160.51 83.8182 160.791C84.2642 161.072 84.6108 161.467 84.858 161.976C85.108 162.484 85.233 163.08 85.233 163.761C85.233 164.437 85.108 165.028 84.858 165.534C84.6108 166.04 84.2642 166.433 83.8182 166.714C83.375 166.996 82.858 167.136 82.267 167.136ZM82.267 166.233C82.7159 166.233 83.0852 166.118 83.375 165.888C83.6648 165.658 83.8793 165.355 84.0185 164.98C84.1577 164.605 84.2273 164.199 84.2273 163.761C84.2273 163.324 84.1577 162.916 84.0185 162.538C83.8793 162.161 83.6648 161.855 83.375 161.622C83.0852 161.389 82.7159 161.273 82.267 161.273C81.8182 161.273 81.4489 161.389 81.1591 161.622C80.8693 161.855 80.6548 162.161 80.5156 162.538C80.3764 162.916 80.3068 163.324 80.3068 163.761C80.3068 164.199 80.3764 164.605 80.5156 164.98C80.6548 165.355 80.8693 165.658 81.1591 165.888C81.4489 166.118 81.8182 166.233 82.267 166.233ZM92.6147 167.136C92.0692 167.136 91.5877 166.999 91.1701 166.723C90.7525 166.445 90.4258 166.053 90.19 165.547C89.9542 165.038 89.8363 164.438 89.8363 163.744C89.8363 163.057 89.9542 162.46 90.19 161.955C90.4258 161.449 90.7539 161.058 91.1744 160.783C91.5948 160.507 92.0806 160.369 92.6317 160.369C93.0579 160.369 93.3945 160.44 93.6417 160.582C93.8917 160.722 94.082 160.881 94.2127 161.06C94.3462 161.236 94.4499 161.381 94.5238 161.494H94.609V158.273H95.6147V167H94.6431V165.994H94.5238C94.4499 166.114 94.3448 166.264 94.2085 166.446C94.0721 166.625 93.8775 166.786 93.6246 166.928C93.3718 167.067 93.0352 167.136 92.6147 167.136ZM92.7511 166.233C93.1545 166.233 93.4954 166.128 93.7738 165.918C94.0522 165.705 94.2638 165.411 94.4087 165.036C94.5536 164.658 94.6261 164.222 94.6261 163.727C94.6261 163.239 94.555 162.811 94.413 162.445C94.271 162.075 94.0607 161.788 93.7823 161.584C93.5039 161.376 93.1602 161.273 92.7511 161.273C92.3249 161.273 91.9698 161.382 91.6857 161.601C91.4045 161.817 91.1928 162.111 91.0508 162.483C90.9116 162.852 90.842 163.267 90.842 163.727C90.842 164.193 90.913 164.616 91.055 164.997C91.1999 165.375 91.413 165.676 91.6942 165.901C91.9783 166.122 92.3306 166.233 92.7511 166.233ZM99.5224 167.153C99.1076 167.153 98.7312 167.075 98.3931 166.919C98.055 166.76 97.7866 166.531 97.5877 166.233C97.3888 165.932 97.2894 165.568 97.2894 165.142C97.2894 164.767 97.3633 164.463 97.511 164.23C97.6587 163.994 97.8562 163.81 98.1033 163.676C98.3505 163.543 98.6232 163.443 98.9215 163.378C99.2227 163.31 99.5252 163.256 99.8292 163.216C100.227 163.165 100.549 163.126 100.797 163.101C101.047 163.072 101.228 163.026 101.342 162.96C101.458 162.895 101.517 162.781 101.517 162.619V162.585C101.517 162.165 101.402 161.838 101.172 161.605C100.944 161.372 100.599 161.256 100.136 161.256C99.6559 161.256 99.2795 161.361 99.0067 161.571C98.734 161.781 98.5423 162.006 98.4315 162.244L97.4769 161.903C97.6474 161.506 97.8746 161.196 98.1587 160.974C98.4457 160.75 98.7582 160.594 99.0962 160.506C99.4371 160.415 99.7724 160.369 100.102 160.369C100.312 160.369 100.554 160.395 100.826 160.446C101.102 160.494 101.368 160.595 101.623 160.749C101.882 160.902 102.096 161.134 102.267 161.443C102.437 161.753 102.522 162.168 102.522 162.688V167H101.517V166.114H101.466C101.397 166.256 101.284 166.408 101.125 166.57C100.966 166.732 100.754 166.869 100.49 166.983C100.225 167.097 99.9031 167.153 99.5224 167.153ZM99.6758 166.25C100.074 166.25 100.409 166.172 100.681 166.016C100.957 165.859 101.164 165.658 101.304 165.411C101.446 165.163 101.517 164.903 101.517 164.631V163.71C101.474 163.761 101.38 163.808 101.235 163.851C101.093 163.891 100.929 163.926 100.741 163.957C100.556 163.986 100.376 164.011 100.2 164.034C100.027 164.054 99.886 164.071 99.7781 164.085C99.5167 164.119 99.2724 164.175 99.0451 164.251C98.8207 164.325 98.6388 164.437 98.4996 164.588C98.3633 164.736 98.2951 164.937 98.2951 165.193C98.2951 165.543 98.4244 165.807 98.6829 165.986C98.9442 166.162 99.2752 166.25 99.6758 166.25ZM112.369 161.92L111.466 162.176C111.409 162.026 111.325 161.879 111.214 161.737C111.107 161.592 110.959 161.473 110.771 161.379C110.584 161.286 110.344 161.239 110.051 161.239C109.651 161.239 109.317 161.331 109.05 161.516C108.786 161.697 108.653 161.929 108.653 162.21C108.653 162.46 108.744 162.658 108.926 162.803C109.108 162.947 109.392 163.068 109.778 163.165L110.75 163.403C111.335 163.545 111.771 163.763 112.058 164.055C112.345 164.345 112.489 164.719 112.489 165.176C112.489 165.551 112.381 165.886 112.165 166.182C111.952 166.477 111.653 166.71 111.27 166.881C110.886 167.051 110.44 167.136 109.932 167.136C109.264 167.136 108.712 166.991 108.274 166.702C107.837 166.412 107.56 165.989 107.443 165.432L108.398 165.193C108.489 165.545 108.661 165.81 108.913 165.986C109.169 166.162 109.503 166.25 109.915 166.25C110.384 166.25 110.756 166.151 111.031 165.952C111.31 165.75 111.449 165.509 111.449 165.227C111.449 165 111.369 164.81 111.21 164.656C111.051 164.5 110.807 164.384 110.477 164.307L109.386 164.051C108.787 163.909 108.347 163.689 108.065 163.391C107.787 163.089 107.648 162.713 107.648 162.261C107.648 161.892 107.751 161.565 107.959 161.281C108.169 160.997 108.455 160.774 108.815 160.612C109.179 160.45 109.591 160.369 110.051 160.369C110.699 160.369 111.207 160.511 111.577 160.795C111.949 161.08 112.213 161.455 112.369 161.92ZM116.662 167.136C116.071 167.136 115.552 166.996 115.106 166.714C114.663 166.433 114.316 166.04 114.066 165.534C113.819 165.028 113.696 164.437 113.696 163.761C113.696 163.08 113.819 162.484 114.066 161.976C114.316 161.467 114.663 161.072 115.106 160.791C115.552 160.51 116.071 160.369 116.662 160.369C117.252 160.369 117.77 160.51 118.213 160.791C118.659 161.072 119.005 161.467 119.252 161.976C119.502 162.484 119.627 163.08 119.627 163.761C119.627 164.437 119.502 165.028 119.252 165.534C119.005 166.04 118.659 166.433 118.213 166.714C117.77 166.996 117.252 167.136 116.662 167.136ZM116.662 166.233C117.11 166.233 117.48 166.118 117.77 165.888C118.059 165.658 118.274 165.355 118.413 164.98C118.552 164.605 118.622 164.199 118.622 163.761C118.622 163.324 118.552 162.916 118.413 162.538C118.274 162.161 118.059 161.855 117.77 161.622C117.48 161.389 117.11 161.273 116.662 161.273C116.213 161.273 115.843 161.389 115.554 161.622C115.264 161.855 115.049 162.161 114.91 162.538C114.771 162.916 114.701 163.324 114.701 163.761C114.701 164.199 114.771 164.605 114.91 164.98C115.049 165.355 115.264 165.658 115.554 165.888C115.843 166.118 116.213 166.233 116.662 166.233ZM121.163 167V160.455H122.134V161.443H122.202C122.322 161.119 122.538 160.857 122.85 160.655C123.163 160.453 123.515 160.352 123.907 160.352C123.981 160.352 124.073 160.354 124.184 160.357C124.295 160.359 124.379 160.364 124.435 160.369V161.392C124.401 161.384 124.323 161.371 124.201 161.354C124.082 161.334 123.955 161.324 123.822 161.324C123.504 161.324 123.219 161.391 122.969 161.524C122.722 161.655 122.526 161.837 122.381 162.07C122.239 162.3 122.168 162.562 122.168 162.858V167H121.163ZM128.884 160.455V161.307H125.492V160.455H128.884ZM126.481 158.886H127.487V165.125C127.487 165.409 127.528 165.622 127.61 165.764C127.695 165.903 127.803 165.997 127.934 166.045C128.067 166.091 128.208 166.114 128.356 166.114C128.467 166.114 128.558 166.108 128.629 166.097C128.7 166.082 128.756 166.071 128.799 166.062L129.004 166.966C128.935 166.991 128.84 167.017 128.718 167.043C128.596 167.071 128.441 167.085 128.254 167.085C127.969 167.085 127.691 167.024 127.418 166.902C127.148 166.78 126.924 166.594 126.745 166.344C126.569 166.094 126.481 165.778 126.481 165.398V158.886ZM133.071 167.136C132.44 167.136 131.896 166.997 131.439 166.719C130.984 166.438 130.634 166.045 130.386 165.543C130.142 165.037 130.02 164.449 130.02 163.778C130.02 163.108 130.142 162.517 130.386 162.006C130.634 161.491 130.977 161.091 131.418 160.804C131.861 160.514 132.378 160.369 132.969 160.369C133.31 160.369 133.646 160.426 133.979 160.54C134.311 160.653 134.614 160.838 134.886 161.094C135.159 161.347 135.376 161.682 135.538 162.099C135.7 162.517 135.781 163.031 135.781 163.642V164.068H130.736V163.199H134.759C134.759 162.83 134.685 162.5 134.537 162.21C134.392 161.92 134.185 161.692 133.915 161.524C133.648 161.357 133.332 161.273 132.969 161.273C132.568 161.273 132.222 161.372 131.929 161.571C131.639 161.767 131.416 162.023 131.26 162.338C131.104 162.653 131.026 162.991 131.026 163.352V163.932C131.026 164.426 131.111 164.845 131.281 165.189C131.455 165.53 131.695 165.79 132.001 165.969C132.308 166.145 132.665 166.233 133.071 166.233C133.335 166.233 133.574 166.196 133.787 166.122C134.003 166.045 134.189 165.932 134.345 165.781C134.501 165.628 134.622 165.437 134.707 165.21L135.679 165.483C135.577 165.812 135.405 166.102 135.163 166.352C134.922 166.599 134.624 166.793 134.268 166.932C133.913 167.068 133.514 167.136 133.071 167.136Z" fill="white"/>
<path fill-rule="evenodd" clip-rule="evenodd" d="M111.777 58.0358C100.257 55.8091 91.4574 53.6891 89.5241 53.2091L89.5108 53.0625L89.4974 53.0225C91.5241 52.5958 101.471 50.7025 112.257 51.6891C131.724 53.4758 129.471 27.2358 113.964 31.7958C119.604 17.0091 97.7908 11.0758 94.0441 30.4491C91.8041 42.0491 89.6574 50.8758 89.2041 52.7292C89.1641 52.7158 89.1241 52.7158 89.0841 52.7158L89.0308 52.7292C88.6174 50.7158 86.7108 40.7692 87.6974 29.9692C89.4841 10.5025 63.2441 12.7558 67.8041 28.2624C53.0041 22.6224 47.0841 44.4224 66.4574 48.1691C78.0441 50.4224 86.8708 52.5558 88.7374 53.0091C88.7241 53.0491 88.7108 53.1025 88.7241 53.1425V53.1958C86.6708 53.6225 76.7374 55.5158 65.9641 54.5291C46.5108 52.7425 48.7508 78.9824 64.2574 74.4224C58.6174 89.2091 80.4308 95.1291 84.1774 75.7558C86.1641 65.5558 88.0574 57.4891 88.7908 54.4358C89.0974 60.4491 88.4841 66.4758 87.2441 72.3424C85.9241 78.6491 83.9374 84.8091 81.8574 90.9425C79.6841 97.0358 77.6841 103.423 76.8574 110.009C75.9641 116.596 76.1108 123.382 77.4041 129.969V129.982L77.4174 130.049C77.6574 131.076 78.6841 131.716 79.7108 131.476C80.7508 131.223 81.3908 130.196 81.1508 129.169C79.7108 123.036 79.3108 116.676 79.9241 110.369C80.2174 107.209 80.7508 104.062 81.4841 100.956C82.2041 97.8358 83.1508 94.7824 84.0841 91.6491C85.9374 85.4091 87.6974 79.1025 88.7774 72.6358C89.6574 67.4625 90.0574 62.1958 89.8174 56.9558C90.4574 61.2225 91.2308 68.5158 90.5241 76.2491C88.7374 95.7024 114.991 93.4625 110.431 77.9558C125.217 83.5958 131.151 61.7825 111.777 58.0358Z" fill="white"/>
</svg>
